<mxfile host="Electron" modified="2024-01-02T14:38:15.679Z" agent="Mozilla/5.0 (Windows NT 10.0; Win64; x64) AppleWebKit/537.36 (KHTML, like Gecko) draw.io/22.1.16 Chrome/120.0.6099.109 Electron/28.1.0 Safari/537.36" etag="c5QHW17uieVdN5TAcIQu" version="22.1.16" type="device" pages="2">
  <diagram name="Page-1" id="q4SHhNGDoZsIz98pcYh-">
    <mxGraphModel dx="1022" dy="640" grid="1" gridSize="10" guides="1" tooltips="1" connect="1" arrows="1" fold="1" page="1" pageScale="1" pageWidth="850" pageHeight="1100" background="#FFFFFF" math="0" shadow="0">
      <root>
        <mxCell id="0" />
        <mxCell id="1" parent="0" />
        <mxCell id="U7F0jXGFnTwWbYMwr8V--17" value="" style="edgeStyle=orthogonalEdgeStyle;rounded=0;orthogonalLoop=1;jettySize=auto;html=1;" parent="1" source="U7F0jXGFnTwWbYMwr8V--1" target="U7F0jXGFnTwWbYMwr8V--16" edge="1">
          <mxGeometry relative="1" as="geometry" />
        </mxCell>
        <mxCell id="U7F0jXGFnTwWbYMwr8V--1" value="&lt;font style=&quot;font-size: 18px;&quot;&gt;Start&lt;/font&gt;" style="strokeWidth=2;html=1;shape=mxgraph.flowchart.start_2;whiteSpace=wrap;" parent="1" vertex="1">
          <mxGeometry x="525" y="490" width="240" height="110" as="geometry" />
        </mxCell>
        <mxCell id="U7F0jXGFnTwWbYMwr8V--19" value="" style="edgeStyle=orthogonalEdgeStyle;rounded=0;orthogonalLoop=1;jettySize=auto;html=1;" parent="1" source="U7F0jXGFnTwWbYMwr8V--16" target="U7F0jXGFnTwWbYMwr8V--18" edge="1">
          <mxGeometry relative="1" as="geometry" />
        </mxCell>
        <mxCell id="U7F0jXGFnTwWbYMwr8V--16" value="&lt;font style=&quot;font-size: 18px;&quot;&gt;input year&lt;/font&gt;" style="shape=parallelogram;perimeter=parallelogramPerimeter;whiteSpace=wrap;html=1;fixedSize=1;strokeWidth=2;" parent="1" vertex="1">
          <mxGeometry x="555" y="710" width="180" height="105" as="geometry" />
        </mxCell>
        <mxCell id="1JNRozwppCIJ6gwewDN5-4" value="" style="edgeStyle=orthogonalEdgeStyle;rounded=0;orthogonalLoop=1;jettySize=auto;html=1;entryX=0.128;entryY=0.388;entryDx=0;entryDy=0;entryPerimeter=0;" edge="1" parent="1" source="U7F0jXGFnTwWbYMwr8V--18" target="1JNRozwppCIJ6gwewDN5-12">
          <mxGeometry relative="1" as="geometry">
            <mxPoint x="895" y="988.8" as="targetPoint" />
          </mxGeometry>
        </mxCell>
        <mxCell id="1JNRozwppCIJ6gwewDN5-10" style="edgeStyle=orthogonalEdgeStyle;rounded=0;orthogonalLoop=1;jettySize=auto;html=1;entryX=0.5;entryY=0;entryDx=0;entryDy=0;" edge="1" parent="1" source="U7F0jXGFnTwWbYMwr8V--18" target="1JNRozwppCIJ6gwewDN5-9">
          <mxGeometry relative="1" as="geometry" />
        </mxCell>
        <mxCell id="U7F0jXGFnTwWbYMwr8V--18" value="&lt;font style=&quot;font-size: 18px;&quot;&gt;if&lt;br&gt;&amp;nbsp;year % 4 == 0&lt;/font&gt;" style="rhombus;whiteSpace=wrap;html=1;strokeWidth=2;" parent="1" vertex="1">
          <mxGeometry x="540" y="907.5" width="210" height="162.5" as="geometry" />
        </mxCell>
        <mxCell id="1JNRozwppCIJ6gwewDN5-5" value="&lt;font style=&quot;font-size: 18px;&quot;&gt;NO&lt;/font&gt;" style="text;html=1;align=center;verticalAlign=middle;resizable=0;points=[];autosize=1;strokeColor=none;fillColor=none;" vertex="1" parent="1">
          <mxGeometry x="800" y="963" width="50" height="40" as="geometry" />
        </mxCell>
        <mxCell id="1JNRozwppCIJ6gwewDN5-6" value="&lt;font style=&quot;font-size: 18px;&quot;&gt;Yes&lt;/font&gt;" style="text;html=1;align=center;verticalAlign=middle;resizable=0;points=[];autosize=1;strokeColor=none;fillColor=none;" vertex="1" parent="1">
          <mxGeometry x="640" y="1113" width="50" height="40" as="geometry" />
        </mxCell>
        <mxCell id="1JNRozwppCIJ6gwewDN5-9" value="&lt;font style=&quot;font-size: 18px;&quot;&gt;given year&amp;nbsp; is leap year&lt;/font&gt;" style="shape=parallelogram;html=1;strokeWidth=2;perimeter=parallelogramPerimeter;whiteSpace=wrap;rounded=1;arcSize=12;size=0.23;" vertex="1" parent="1">
          <mxGeometry x="450" y="1220" width="390" height="150" as="geometry" />
        </mxCell>
        <mxCell id="1JNRozwppCIJ6gwewDN5-20" style="edgeStyle=orthogonalEdgeStyle;rounded=0;orthogonalLoop=1;jettySize=auto;html=1;" edge="1" parent="1" source="1JNRozwppCIJ6gwewDN5-12">
          <mxGeometry relative="1" as="geometry">
            <mxPoint x="645" y="1450" as="targetPoint" />
            <Array as="points">
              <mxPoint x="1045" y="1450" />
              <mxPoint x="1045" y="1450" />
            </Array>
          </mxGeometry>
        </mxCell>
        <mxCell id="1JNRozwppCIJ6gwewDN5-12" value="&lt;font style=&quot;font-size: 18px;&quot;&gt;given year&amp;nbsp; is not leap year&lt;/font&gt;" style="shape=parallelogram;html=1;strokeWidth=2;perimeter=parallelogramPerimeter;whiteSpace=wrap;rounded=1;arcSize=12;size=0.23;" vertex="1" parent="1">
          <mxGeometry x="850" y="930" width="390" height="150" as="geometry" />
        </mxCell>
        <mxCell id="1JNRozwppCIJ6gwewDN5-14" style="edgeStyle=orthogonalEdgeStyle;rounded=0;orthogonalLoop=1;jettySize=auto;html=1;" edge="1" parent="1" source="1JNRozwppCIJ6gwewDN5-9" target="1JNRozwppCIJ6gwewDN5-24">
          <mxGeometry relative="1" as="geometry">
            <mxPoint x="645" y="1610" as="targetPoint" />
            <Array as="points">
              <mxPoint x="645" y="1440" />
              <mxPoint x="645" y="1440" />
            </Array>
          </mxGeometry>
        </mxCell>
        <mxCell id="1JNRozwppCIJ6gwewDN5-24" value="&lt;font style=&quot;font-size: 18px;&quot;&gt;Stop&lt;/font&gt;" style="strokeWidth=2;html=1;shape=mxgraph.flowchart.start_2;whiteSpace=wrap;" vertex="1" parent="1">
          <mxGeometry x="595" y="1560" width="100" height="100" as="geometry" />
        </mxCell>
      </root>
    </mxGraphModel>
  </diagram>
  <diagram id="zLjypJsapiNK8WspZEec" name="Page-2">
    <mxGraphModel dx="1022" dy="640" grid="1" gridSize="10" guides="1" tooltips="1" connect="1" arrows="1" fold="1" page="1" pageScale="1" pageWidth="850" pageHeight="1100" math="0" shadow="0">
      <root>
        <mxCell id="0" />
        <mxCell id="1" parent="0" />
      </root>
    </mxGraphModel>
  </diagram>
</mxfile>
